<svg xmlns="http://www.w3.org/2000/svg" viewBox="0 0 324.76 153.74"><defs><style>.cls-1{fill:#db9537;}.cls-2{fill:#fee159;}.cls-3{fill:#f1573f;}.cls-4{fill:#4db248;}.cls-5{fill:#fdc980;}.cls-6{fill:#eb99a5;}.cls-7,.cls-9{fill:none;stroke-miterlimit:10;stroke-width:6px;}.cls-7{stroke:#fdcdc9;}.cls-8{fill:#de5569;}.cls-9{stroke:#e27787;}</style></defs><title>Oat Sandwich</title><g id="Layer_2" data-name="Layer 2"><g id="Layer_1-2" data-name="Layer 1"><path class="cls-1" d="M306.19,108.3c2.78.11,17.64-1.78,17.82,5.78s3.18,37-113.15,39S5.62,155,.07,115.52,306.19,108.3,306.19,108.3Z"/><path class="cls-2" d="M322.53,90c1.55,1.77,1.47,6.22,1.73,10.89s1.82,12.44-2.4,10.44-23.22-1.67-24.78-.89-48,23.56-48.78,23.33-48-23.33-49.33-23.44-72.22-.33-73,0-48.33,23.45-49.11,23.45-48.67-23.23-49.45-23.34-23.44-.33-24.11,0-1.46,1.31-2,1.31-1-1.87-1-2.75-.6-14.11,0-15.84S322.53,90,322.53,90Z"/><path class="cls-3" d="M320,90c1.89.74,4.66,1.61,3.83,6.69s-6.08,4.17-7.5,4.17H4.36c-2.17,0-4.32-4-4.32-6.29A4.71,4.71,0,0,1,2.94,90c1.54-.52,157.25-8.73,157.25-8.73S318.8,89.48,320,90Z"/><path class="cls-4" d="M301.11,74.41c2.67,0,11.67-.33,13.17,0s9.22,1.67,9.73,10.67a11.33,11.33,0,0,1-10.4,12.25c-9.92,0-13.92-7.84-22.5-7.84-12.08,0-18.92,13.08-33.34,13.08-12.24,0-18.24-12.6-31.24-12.6S206.94,102.7,194,102.7c-10.05,0-23.34-13.54-31.63-13.21s-20.46,12.85-32.21,13.09S109.53,90,98.11,90s-19.5,12.62-32.42,12.62c-12.33,0-18-12.62-32.58-12.62-9.83,0-10.92,7.27-21.67,7.27S.07,88.08.07,84.5C.07,78.83,5.62,74,11.69,73.66c5.5-.33,82.5.6,82.5.6Z"/><path class="cls-1" d="M.19,56.91c-.76-3.26.5-30,46.34-43.83C74.37,4.67,125.57-1.3,180,.24c35.17,1,71.62,4.37,104.33,14.84,40.47,13,41.21,41.33,39.37,43.49s1,6.34-103.37,7.51S3.69,71.91.19,56.91Z"/><path class="cls-5" d="M117.69,13.83c1.69,1-13.54,11.54-25.9,18.47-9.46,5.31-24.35,10.58-25.18,9.9C65,40.91,84.4,27.33,90.86,23.79,99.5,19.05,116.53,13.16,117.69,13.83Z"/><path class="cls-5" d="M187.83,7.61c1.68,1-13.55,11.54-25.91,18.47-9.46,5.31-24.35,10.57-25.18,9.9-1.58-1.29,17.79-14.87,24.25-18.42C169.63,12.83,186.66,6.94,187.83,7.61Z"/><path class="cls-5" d="M257.6,13.83c1.69,1-13.54,11.54-25.9,18.47-9.46,5.31-24.35,10.58-25.18,9.9-1.58-1.29,17.79-14.87,24.25-18.41C239.41,19.05,256.44,13.16,257.6,13.83Z"/><path class="cls-6" d="M97.54,68.47c-1.45,0-16.4,4.36-52.4,4.36-16,0-26.58.43-31.38-3.4-10.24-8.18.75-21.81,9.83-18.06C62.2,67.32,85.28,66.42,97.28,66.08Z"/><path class="cls-7" d="M97.2,63.09c-12,.33-36.5,3.61-75.11-12.34C13,47,2,60.63,12.26,68.81c4.8,3.83,15.48,2.72,31.5,2.72,36,0,52.33-.11,53.78-.11"/><path class="cls-8" d="M171.63,68.74c-1.45,0-16.4,4.36-52.4,4.36-16,0-26.58.43-31.38-3.4-10.24-8.18.75-21.81,9.83-18.05,38.61,15.94,61.69,15,73.69,14.71Z"/><path class="cls-9" d="M171.29,63.36c-12,.33-36.5,3.61-75.11-12.33-9.08-3.76-20.07,9.87-9.83,18,4.8,3.83,15.48,2.72,31.5,2.72,36,0,52.33-.11,53.78-.11"/><path class="cls-6" d="M245,69.05c-1.44,0-16.4,4.36-52.4,4.36-16,0-26.57.43-31.37-3.4C150.93,61.83,161.92,48.2,171,52,209.62,67.9,232.7,67,244.7,66.67Z"/><path class="cls-7" d="M244.62,63.67c-12,.33-36.5,3.61-75.11-12.33-9.09-3.76-20.08,9.87-9.83,18,4.8,3.83,15.47,2.72,31.5,2.72,36,0,52.33-.11,53.77-.11"/><path class="cls-8" d="M318.79,69.05c-1.44,0-16.4,4.36-52.4,4.36-16,0-26.57.43-31.37-3.4-10.25-8.18.74-21.81,9.83-18.05,38.61,15.94,61.69,15,73.69,14.71Z"/><path class="cls-9" d="M318.46,63.67c-12,.33-36.5,3.61-75.11-12.33-9.09-3.76-20.08,9.87-9.83,18,4.8,3.83,15.47,2.72,31.5,2.72,36,0,52.33-.11,53.77-.11"/></g></g></svg>