<svg xmlns="http://www.w3.org/2000/svg" viewBox="0 0 742.42 546.9"><defs><style>.cls-1{fill:#751724;}.cls-2{fill:#d0d2d3;}.cls-29,.cls-3,.cls-39,.cls-41{fill:none;stroke-miterlimit:10;}.cls-3{stroke:#d5d5d6;stroke-width:7px;}.cls-4{fill:#221f20;}.cls-5{fill:#414042;}.cls-6{fill:#8e9093;}.cls-7{fill:#59595b;}.cls-8{fill:#6d6e71;}.cls-9{fill:#d5d5d6;}.cls-10{fill:#c3c3c4;}.cls-11{fill:#3f6974;}.cls-12{fill:#2d5059;}.cls-13{fill:#e8be9a;}.cls-14{fill:#dea67c;}.cls-15{fill:#dac39a;}.cls-16{fill:#c9ac7b;}.cls-17{fill:#e1d1af;}.cls-18{fill:#c3a270;}.cls-19{fill:#d8462a;}.cls-20{fill:#aa2c17;}.cls-21{fill:#edb146;}.cls-22{fill:#e4962d;}.cls-23{fill:#f6d381;}.cls-24{fill:#d5394a;}.cls-25{fill:#232324;}.cls-26{fill:#e4949b;}.cls-27{fill:#ab2c3a;}.cls-28{fill:#2d2d2d;}.cls-29{stroke:#59595b;stroke-width:3px;}.cls-30{fill:#512b05;}.cls-31{fill:#9a2434;}.cls-32{fill:#791a1c;}.cls-33{fill:#db9537;}.cls-34{fill:#fee159;}.cls-35{fill:#f1573f;}.cls-36{fill:#4db248;}.cls-37{fill:#fdc980;}.cls-38{fill:#eb99a5;}.cls-39{stroke:#fdcdc9;}.cls-39,.cls-41{stroke-width:6px;}.cls-40{fill:#de5569;}.cls-41{stroke:#e27787;}</style></defs><title>SandwichPic</title><g id="Layer_2" data-name="Layer 2"><g id="Layer_1-2" data-name="Layer 1"><path class="cls-1" d="M546.5,194.86c-3.16-1.13-10.12,3.62-10.87,4.62s-14,20-4.5,28.67S549.72,225.23,550,223s.07-9.25,0-11.41S547.67,195.28,546.5,194.86Z"/><ellipse class="cls-2" cx="491.28" cy="532.23" rx="251.15" ry="14.67"/><path class="cls-3" d="M173.88,310.57H340.12"/><path class="cls-4" d="M496.07,418.11c.9-3.64,12-6.85,23.25,0s6.22,10.18,2.67,11.51-12.78.55-17.45-1.39S495.48,420.48,496.07,418.11Z"/><path class="cls-5" d="M468.21,421c.12,2.67.33,14.22,1.45,14.33s37.66.33,38.55,0,6.56-1.33,6.11-6.67-12.69-9.89-16.83-9.44-.61-6.78-3.06-8S468,415.3,468.21,421Z"/><rect class="cls-5" x="231.21" y="438.01" width="19.38" height="19.38"/><path class="cls-3" d="M215.15,310.23l84.5,80.2"/><ellipse class="cls-4" cx="338.21" cy="459.83" rx="68" ry="71"/><ellipse class="cls-6" cx="338.21" cy="458.39" rx="44.04" ry="45.99"/><ellipse class="cls-7" cx="338.21" cy="457.39" rx="37.18" ry="38.82"/><ellipse class="cls-8" cx="338.21" cy="457.39" rx="20.4" ry="21.3"/><ellipse class="cls-4" cx="644.63" cy="459.83" rx="68" ry="71"/><ellipse class="cls-6" cx="644.63" cy="458.39" rx="44.04" ry="45.99"/><ellipse class="cls-7" cx="644.63" cy="457.39" rx="37.18" ry="38.82"/><ellipse class="cls-8" cx="644.63" cy="457.39" rx="20.4" ry="21.3"/><path class="cls-9" d="M629.26,428.23c3.22,4.44,19.55,24.86,11.44,30.76s-25-21.6-25-22.29S629.26,428.23,629.26,428.23Z"/><path class="cls-10" d="M629.26,428.23c-.07.23,20.41,24.59,11.61,30.76-3.29,2.31-7.42-.84-8.37-1.49C627.42,454,638.92,452.11,629.26,428.23Z"/><path class="cls-11" d="M342.88,254.46c-4.42,22.77-3.25,50.19,12.33,60.44,10.24,6.74,41.17,11,78.58,1.83,9.37-2.29,4.17,4.75,14,34.67,9.57,29.09,15.79,66.72,19.92,68,7,2.17,28,1.08,38.67-5.33,2.5-1.5-26-91.7-34.34-117.59-7.66-23.75-46.66-25.58-51.33-25.41S342.88,254.46,342.88,254.46Z"/><path class="cls-12" d="M472,296.48c5.29,26.86,17,92.08,20.06,102.59,8.67,29.37-28.52,19.05-24.39,20.33,7,2.17,28,1.08,38.67-5.33,2.5-1.5-26-91.7-34.34-117.59Z"/><path class="cls-12" d="M342.88,254.46c-4.42,22.77-3.25,50.19,12.33,60.44,10.24,6.74,40.18,4.91,78.58,1.83,6.25-.5,4.17,4.75,14,34.67,9.57,29.09,15.53,65.11,19.92,68C438,315.18,455.43,306,430.43,308.85c-11,1.27-75.44,15.88-79.11-12.23-4.92-37.77,36.56,5.56,82.78-24.36C441.63,267.39,342.88,254.46,342.88,254.46Z"/><circle class="cls-4" cx="525.12" cy="211.57" r="9.78"/><path class="cls-13" d="M534.27,217.68c3.46-.19,7.55-3.28,6.05-11s-4.5-15.78-20.94-16.17-16.06.39-16.17.89-1.83,17.56,0,17.56,12,.13,12.89,0c2-.31,6.83-2.29,8.5-6.17,1.06-2.44,8.15,2.69,7.61,6.22C531.38,214.45,530.1,217.9,534.27,217.68Z"/><path class="cls-14" d="M534.27,217.68c1.51-.09-.2-7.11.08-10.2a6.86,6.86,0,0,0-3.72-6.3c-3.52-1.71-9.15-.79-14.36,3.64-4.78,4.05-4.11-8-3.86-9.28,1-5.13,8.25-5,7-5-16.45-.39-16.06.39-16.17.89s-1.83,17.56,0,17.56,12,.13,12.89,0c2-.31,6.83-2.29,8.5-6.17,1.06-2.44,8.15,2.69,7.61,6.22C531.38,214.45,530,217.91,534.27,217.68Z"/><rect class="cls-15" x="181.43" y="204.4" width="152.89" height="102.22"/><rect class="cls-15" x="173.43" y="168.9" width="169.44" height="35.5"/><path class="cls-16" d="M183.66,194.73c-1.78-.66-3.27-17-.53-20.82s59.58-5,59.58-5H173.43v35.5H342.88C326,200.15,185.43,195.4,183.66,194.73Z"/><path class="cls-17" d="M193.88,213.36c2.74-3.84,43.25-5.5,43.25-5.5L188,205.53l-.79,76.65S191.13,217.2,193.88,213.36Z"/><path class="cls-17" d="M328.82,176.57c5.5,1.22,6.19,19.05,6.19,19.05l1-22.94H246.49S324.8,175.67,328.82,176.57Z"/><path class="cls-16" d="M324,212.4c2.78,2.89,2.44,62.78-2.11,75.34-3.89,10.7-140.45,18.88-140.45,18.88H334.32V204.4l-154.11-2.11C202.21,206,322.18,210.52,324,212.4Z"/><path class="cls-18" d="M334.32,204.4v2.24c-.63.06-139.08.18-152.89-2.24Z"/><path class="cls-19" d="M371.38,125.4c4.06-4.82,14.16-14,44,10.67s25.33,86.5,25.33,112.5c0,18.33-1.39,20.39-2.55,21.25s-23.62,12.33-53.06,8.25c-30.92-4.29-47.56-14.78-48.22-16.67S331.21,173.07,371.38,125.4Z"/><path class="cls-20" d="M424.79,263.23c.52-.5-50.25-33.53-41.08-31.41,1.52.35,59.65,26.87,45,8.33-4.08-5.17-19.16-4.87-51.58-55.25C357,153.57,398,135.93,407,143.42c24.84,20.54,32.32,58,33.91,87,.32,5.84-.24,13.44-.24,18.16,0,18.33-1.39,20.39-2.55,21.25s-23.62,12.33-53.06,8.25c-30.92-4.29-47.56-14.78-48.22-16.67-.34-1-2-18.25,1.22-44.94C329.88,280.73,415.63,272.32,424.79,263.23Z"/><path class="cls-21" d="M510.54,188.73c1.77.21-.27,31.13-3.08,31.84-3.52.88-69.78,10.49-76.69,11.16-7.41.73-31.26-23.14-47.32-51.36-4.55-8-6.32-19.05-3.38-23.64,4.74-7.39,16.16-15,27-11.77,16,4.77,29.9,51,33.61,52C450.16,199.54,499.32,187.4,510.54,188.73Z"/><path class="cls-22" d="M510.54,188.73c1.95-.76-.27,31.13-3.08,31.84-3.52.88-69.78,10.49-76.69,11.16-7.41.73-31.26-23.14-47.32-51.36-4.55-8-6.32-19.05-3.38-23.64,4.74-7.39,15.89-15,27-11.77-53.28,8.33,6.44,66.52,8.44,67.94,1.35,1,4.57,0,9.22.06,1.37,0-.8,12.94,19.42,12.3,12.42-.39,47.59-1.76,57.64-8.3C509.89,211.7,509.86,189,510.54,188.73Z"/><path class="cls-23" d="M582,179c.43-.66,2.25-1.16,2.86,2.31.51,2.85,1.64,32.8-4.47,38.8S581.39,180,582,179Z"/><path class="cls-24" d="M583,178s-3.72,42.4-3.91,43.37S543,222.82,543,202.82,559.3,175.61,583,178Z"/><path class="cls-5" d="M285.88,348.73c-2.91-.26-10.17-26.65-2.84-33.66,3.84-3.67,151.34-2.84,153.34-.34s10.16,27.34,6.66,29S287.71,348.9,285.88,348.73Z"/><path class="cls-25" d="M285.88,348.73c-2.91-.26-10.17-26.65-2.84-33.66.95-.9-3.84,21.92,11.5,24.89,16.67,3.22,52.93-4,73.12-5.78,17.22-1.56,50.76.85,62-4s6.72-15.45,6.72-15.45c2,2.5,10.16,27.34,6.66,29S287.71,348.9,285.88,348.73Z"/><path class="cls-24" d="M443,343.73s-149.16-2-152,0-48.45,36.89-48.45,121.78h40.23c3.77,0,13.33-12,16.66-12.89s72-1.05,73.78-1.05c6.89,0,22.67,20.39,26.45,21.5s117.77,0,120.66,0,25.78-4.22,34.67-25.34c1.14-2.75.11,16,0,17.92,2.8,0,40.26,1,41.22,0s16.33-31.42,42.17-42.08,53.33-18.4,69.5-15.37c0-12.8-18.34-57.8-79-44.13-3.34-10.9-13.5-34-31.67-40.17s-36.17-70.49-41-102.16c-17.75,0-49.68,6-49.68,55.83s22.35,140.83,18.35,145-1.34,10.83-86.5,7.66C407,425.4,446.71,360.73,443,343.73Z"/><path class="cls-26" d="M687.16,395.62c2.8,0-55.62,5.2-79.71,44.56-1,1.69,14-14.21,39.84-24.86,17.25-7.12,38.81-12.36,53.7-11.7,0-12.8-16.83-33.94-30.78-36C684.82,380.46,687.27,393.71,687.16,395.62Z"/><path class="cls-27" d="M462.1,436.85c31.18,3.07,51.64-.85,54.44-1.56,5.9-1.49,15.3-3,19.39-16.75s-5.67-70.89-14.42-118.81c-14.79-81,31.94-64.45,35-78-17.75,0-49.37,3.44-50.48,55.66-1.08,50.5,22.33,141,18.33,145.11s-.52,10.89-85.69,7.72C428.51,429.07,446.32,435.29,462.1,436.85Z"/><path class="cls-27" d="M443.57,343.16s-150.14-2.31-153-.31-48.55,35.77-49,123.26H283c3.78,0,13.11-11.93,16.44-12.82s72-1.22,73.78-1.22c6.89,0,22.67,19.89,26.45,21s117.77,0,120.66,0,25.78-4.22,34.67-25.34c1.14-2.75.11,16,0,17.92,2.8,0,40.26,1,41.22,0s-22.92-8.08-22.78-14.14c.17-7.12,10.11-42.44,26-58.86,12-12.42,22.58-25.33,59.41-30.67.47-.07-16.72-1.61-29.91,2.09-15.3,4.28-33,12.83-43.45,28.33-10.83,16.08-33.66,75-65.11,75-8.55,0-64.91,1.93-105.28-2.67C391,462,384,446.18,377,446.18c-19.27,0-66.49.11-80.45.55-2.56.09-8.83,11.84-22.66,10.34-5.74-.62-26.72-48.37,14.16-91.5,9.87-10.41,27.5-10.84,73.85-9.34C376.37,356.7,447.13,355.43,443.57,343.16Z"/><path class="cls-27" d="M407.21,442.73A83.23,83.23,0,0,1,402,428.87a50.22,50.22,0,0,1-1.89-15l0-1c0-.33.08-.65.12-1,.09-.64.15-1.3.26-1.95.29-1.29.58-2.64.91-3.76.63-2.35,1.24-4.69,1.74-7,1-4.62,1.7-9.33,1.05-13.45a9.76,9.76,0,0,0-6.58-8.3,32.43,32.43,0,0,0-6.34-1.49c-2.29-.33-4.63-.55-7-.7a157.42,157.42,0,0,0-28.52,1c-4.74.57-9.45,1.35-14.1,2.36A123.43,123.43,0,0,0,328,382.38c-9,3-17.5,7.06-24.77,13l-2.78,2.21c-.9.76-1.75,1.59-2.63,2.38s-1.78,1.57-2.59,2.43l-2.46,2.57c-.4.43-.84.84-1.22,1.3l-1.15,1.36c-.76.91-1.54,1.81-2.29,2.74-1.38,1.93-2.88,3.8-4.12,5.85s-2.52,4.06-3.72,6.15l-1.63,3.22c-.52,1.09-1,2.19-1.5,3.29a67.84,67.84,0,0,0-4.43,13.88,48.08,48.08,0,0,1,.68-7.36,72.63,72.63,0,0,1,7.2-21.16,82.36,82.36,0,0,1,18.6-23.68,66.09,66.09,0,0,1,12.44-9,93.59,93.59,0,0,1,13.86-6.35,133.32,133.32,0,0,1,29.35-6.87,145.42,145.42,0,0,1,30.09-.64c2.53.25,5.06.56,7.6,1l1.92.39c.65.14,1.29.31,1.94.47s1.31.39,2,.59,1.35.47,2,.78a16.65,16.65,0,0,1,7.12,5.62,15.75,15.75,0,0,1,2.08,4.11,20,20,0,0,1,.89,4.28,30.12,30.12,0,0,1-.4,8.1,56,56,0,0,1-1.83,7.46c-.74,2.41-1.58,4.75-2.42,7.07-.47,1.19-.77,2.22-1.12,3.29a33.28,33.28,0,0,0-.67,3.36,50,50,0,0,0,.17,14.18A112,112,0,0,0,407.21,442.73Z"/><path class="cls-26" d="M555.07,241.14c1.53,5.79,3.29,11.48,4.95,17.18l5.07,17c3.45,11.28,6.94,22.57,11.38,33.18a77.48,77.48,0,0,0,3.66,7.61,38.88,38.88,0,0,0,2.1,3.42c.39.49.75,1.07,1.15,1.49s.73.88,1.29,1.4c2,2,4.12,3.89,6.29,5.73s4.54,3.53,6.94,5.33A75.51,75.51,0,0,1,611.34,346a84.33,84.33,0,0,1,5.45,7.26c.82,1.27,1.69,2.49,2.45,3.79s1.55,2.58,2.28,3.89c-2.19-2.07-4.26-4.21-6.43-6.25s-4.31-4-6.54-5.92c-1.1-1-2.26-1.85-3.38-2.77s-2.28-1.76-3.48-2.56c-2.35-1.66-4.8-3.16-7.33-4.7s-5.13-3.13-7.66-4.91a77.16,77.16,0,0,1-7.26-5.86,20.42,20.42,0,0,1-1.82-1.8c-.64-.65-1.09-1.32-1.64-2a45.76,45.76,0,0,1-2.71-4.08,82,82,0,0,1-4.16-8.41c-4.73-11.36-7.73-23-10.1-34.8-1.15-5.89-2.11-11.81-2.82-17.76-.35-3-.66-6-.86-9A77.35,77.35,0,0,1,555.07,241.14Z"/><path class="cls-28" d="M480.69,473.56c-2.33,4.83-4.65,11.34-12,11.34h-62.5c-1.5,0,.67-3-1.33-2.83s-5,2.16-6.84,1.33-16.16-8.5-18.16-8.5H341.71c-1.67,0-10.17-2.5-21.5-22.83h53c8.63,0,21,19.32,27.75,21.49Z"/><path class="cls-29" d="M334.88,459.83h41"/><path class="cls-29" d="M341.75,466.11h41"/><path class="cls-9" d="M217,443.73s-18.45,16.19-29.56,16.1-34.66-4.54-44.22-3.87-31.79,11-44.67,8.89c-17.33-2.78-15.22-19.17-19-20.28s-6.11,4.28-13.66,6.05-16.87-4-18.45-1.77c-2.31,3.22-9.55,20.38-26.89,19.63S-8.12,442.18,7.21,426.4,38.1,429.07,41,427.73s13.78-42.66,37.33-42.22,34.31,15.43,37.78,21.41c2.83,4.88,9.61,31.09,19.78,31.09,10.89,0,16.86-2.32,24.78.72,8.66,3.34,23,15.67,33.22,13.34S217,443.73,217,443.73Z"/><path class="cls-13" d="M405.21,111.18l.56,19c0,4.89-2.73,8-13.06,6-6.57-1.32-14.84-6.08-14.84-8.08V105.4S405.21,109,405.21,111.18Z"/><path class="cls-14" d="M405.21,111.18v13.25a81.87,81.87,0,0,1-16.89-2.25,73,73,0,0,1-10.45-3V105.4S405.21,109,405.21,111.18Z"/><path class="cls-13" d="M452.79,79.32c-.11,2.33-2.87,27.29-28.13,38.64-27.53,12.36-52.45-7.78-59.12-21.11S387.43,46,412.43,47.51s28.23,2.67,31.34,5.78S462.34,74,462.1,76.18c-.12,1.15-.56,3-4.33,2.89A34.4,34.4,0,0,0,452.79,79.32Z"/><path class="cls-30" d="M360.38,84.64c.11,3.61,5.25,14.83,6,11.72s3.41-12,5.16-12.58,4.39,2.76,11.88,2.15C394,85.07,402,72.4,402.63,73.4s-2.75,10.58,0,9.08,36.66-18.66,44.91-27.66S360,73.81,360.38,84.64Z"/><path class="cls-31" d="M489.3,24.9a3,3,0,0,1-.05.49c-1.13,4.73-19,28.24-57.79,37.76l-1.54.37-1.5.34-1.45.32c-1.54.32-3,.59-4.4.82l-2.21.35c-1.24.17-2.42.31-3.54.41-24.91,2.32-21.42-12.06-20.28-12.7.54-.3,9.12-4.48,19.12-9.36C430.32,36.56,448,28,448,28c1.66-.23,40-6,41.22-3.21,0,0,0,0,0,.07A.19.19,0,0,1,489.3,24.9Z"/><path class="cls-32" d="M489.3,24.9a3,3,0,0,1-.05.49C488.19,31,470.69,53.54,431.8,63.08c-.64.16-1.26.31-1.88.44l-1.5.34-1.45.32c-1.54.32-3,.59-4.4.82-.76.13-1.49.25-2.21.35-1.24.17-2.42.31-3.54.41-24.7,2.33-21.67-11.45-20.21-13,.47-.49,12.66-14.57,19.05-9.07L416,44c18.45,18.16,21,13.15,35.88,7.22,26.43-10.55,36.81-25.5,37.43-26.43,0,0,0,0,0,.07A.19.19,0,0,1,489.3,24.9Z"/><path class="cls-20" d="M448.05,28C449.75,22.61,435-6.6,397.43,1.4s-42,29.33-43.77,40.45,3.1,42.88,6.72,44.77S437.77,60.29,448.05,28Z"/><path class="cls-19" d="M447.92,28c2.57-4.73-12.21-34.73-50.62-26.56C364.09,8.46,362.43,35,363.77,50c1,11.2,4.8,17.73,13.44,19.55C389.88,72.18,431,59,447.92,28Z"/><path class="cls-33" d="M307.11,261c.95,0,6-.61,6.07,2s1.08,12.6-38.52,13.28-69.87.64-71.76-12.79S307.11,261,307.11,261Z"/><path class="cls-34" d="M312.67,254.79c.53.61.51,2.12.59,3.71s.62,4.24-.81,3.56-7.91-.57-8.44-.31-16.34,8-16.6,7.95-16.34-7.95-16.8-8-24.58-.12-24.85,0-16.45,8-16.72,8-16.57-7.91-16.83-7.95-8-.11-8.21,0-.5.45-.67.45-.32-.64-.34-.93a40.48,40.48,0,0,1,0-5.4C203.19,255.29,312.67,254.79,312.67,254.79Z"/><path class="cls-35" d="M311.82,254.79c.65.26,1.59.55,1.31,2.28s-2.07,1.42-2.56,1.42H204.36c-.74,0-1.47-1.36-1.47-2.14a1.61,1.61,0,0,1,1-1.56c.52-.17,53.53-3,53.53-3S311.4,254.63,311.82,254.79Z"/><path class="cls-36" d="M305.38,249.5c.91,0,4-.11,4.48,0a3.78,3.78,0,0,1,3.32,3.63,3.86,3.86,0,0,1-3.54,4.17c-3.38,0-4.74-2.67-7.66-2.67-4.12,0-6.44,4.45-11.35,4.45-4.17,0-6.21-4.29-10.64-4.29s-6.66,4.34-11.06,4.34c-3.42,0-7.95-4.61-10.77-4.5s-7,4.38-11,4.46-7-4.3-10.92-4.3-6.64,4.3-11,4.3c-4.2,0-6.13-4.3-11.09-4.3-3.35,0-3.72,2.48-7.38,2.48s-3.87-3.12-3.87-4.34c0-1.93,1.89-3.56,4-3.69,1.87-.11,28.08.21,28.08.21Z"/><path class="cls-33" d="M202.94,243.54c-.26-1.11.17-10.21,15.78-14.92,9.48-2.86,26.9-4.9,45.44-4.37,12,.34,24.39,1.49,35.52,5.05,13.78,4.41,14,14.07,13.4,14.81s.33,2.16-35.19,2.55S204.13,248.65,202.94,243.54Z"/><path class="cls-37" d="M242.94,228.88c.58.32-4.61,3.92-8.81,6.28-3.23,1.81-8.3,3.6-8.58,3.37-.54-.43,6.06-5.06,8.26-6.26C236.75,230.65,242.55,228.65,242.94,228.88Z"/><path class="cls-37" d="M266.82,226.76c.57.33-4.61,3.93-8.82,6.29-3.22,1.8-8.29,3.6-8.57,3.37-.54-.44,6-5.07,8.25-6.27C260.62,228.53,266.42,226.53,266.82,226.76Z"/><path class="cls-37" d="M290.57,228.88c.58.32-4.61,3.92-8.82,6.28-3.22,1.81-8.29,3.6-8.57,3.37-.54-.43,6.06-5.06,8.26-6.26C284.38,230.65,290.17,228.65,290.57,228.88Z"/><path class="cls-38" d="M236.08,247.48c-.49,0-5.58,1.48-17.84,1.48-5.45,0-9,.15-10.68-1.16-3.49-2.78.26-7.42,3.35-6.14,13.14,5.42,21,5.12,25.09,5Z"/><path class="cls-39" d="M236,245.64a52.26,52.26,0,0,1-25.57-4.19c-3.09-1.28-6.84,3.36-3.35,6.14,1.64,1.31,5.27.93,10.72.93,12.26,0,17.82,0,18.31,0"/><path class="cls-40" d="M261.3,247.57c-.49,0-5.58,1.48-17.84,1.48-5.45,0-9,.15-10.68-1.15-3.48-2.79.26-7.43,3.35-6.15,13.15,5.43,21,5.12,25.09,5Z"/><path class="cls-41" d="M261.19,245.74a52.32,52.32,0,0,1-25.57-4.2c-3.09-1.28-6.83,3.36-3.35,6.15,1.64,1.3,5.27.92,10.73.92,12.25,0,17.81,0,18.3,0"/><path class="cls-38" d="M286.27,247.68c-.5,0-5.59,1.48-17.84,1.48-5.46,0-9.05.15-10.68-1.16-3.49-2.78.25-7.42,3.34-6.15,13.15,5.43,21,5.13,25.09,5Z"/><path class="cls-39" d="M286.15,245.84c-4.08.12-12.42,1.23-25.57-4.2-3.09-1.27-6.83,3.37-3.34,6.15,1.63,1.31,5.26.93,10.72.93,12.25,0,17.81,0,18.31,0"/><path class="cls-40" d="M311.4,247.68c-.49,0-5.58,1.48-17.84,1.48-5.45,0-9,.15-10.68-1.16-3.49-2.78.26-7.42,3.35-6.15,13.14,5.43,21,5.13,25.09,5Z"/><path class="cls-41" d="M311.29,245.84c-4.09.12-12.43,1.23-25.57-4.2-3.09-1.27-6.84,3.37-3.35,6.15,1.64,1.31,5.27.93,10.73.93,12.25,0,17.81,0,18.3,0"/></g></g></svg>